<svg width="200" height="200" viewBox="0 0 200 200" fill="none" xmlns="http://www.w3.org/2000/svg">
<rect width="30" height="210" transform="matrix(-0.707107 -0.707107 -0.707107 0.707107 186.706 36.2132)" fill="#5091F3"/>
<rect width="30" height="135" rx="15" transform="matrix(-0.707107 -0.707107 -0.707107 0.707107 188.673 94.2132)" fill="#5091F3"/>
<rect x="14" y="163" width="24" height="24" rx="5" fill="#5091F3"/>
<rect width="24" height="24" rx="5" transform="matrix(1 0 0 -1 163 39)" fill="#5091F3"/>
<path d="M190 100C190 149.706 149.706 190 100 190C50.2944 190 10 149.706 10 100C10 50.2944 50.2944 10 100 10C149.706 10 190 50.2944 190 100ZM24.4 100C24.4 141.753 58.2473 175.6 100 175.6C141.753 175.6 175.6 141.753 175.6 100C175.6 58.2473 141.753 24.4 100 24.4C58.2473 24.4 24.4 58.2473 24.4 100Z" fill="#5091F3"/>
</svg>
